# xmcd
#
# Track frame offsets:
#	150
#	36784
#	73454
#	115793
#	185659
#	222918
#
# Disc length: 3583 seconds
#
# Revision: 0
# Processed by: cddbd v1.5.2PL0 Copyright (c) Steve Scherf et al.
# Submitted via: audiograbber 1.83.01
#
DISCID=5b0dfd06
DTITLE=Grateful Dead - 94-03-21 Richfield Coliseum, Richfield OH
DYEAR=1900
DGENRE=
TTITLE0=Picasso Moon
TTITLE1=New Speedway Boogie
TTITLE2=Victim Or The Crime
TTITLE3=He's Gone
TTITLE4=Jam
TTITLE5=Drums
EXTD=
EXTT0=
EXTT1=
EXTT2=
EXTT3=
EXTT4=
EXTT5=
PLAYORDER=
